# xmcd
# 
# Track frame offsets:
#     150
#     19153
#     38773
#     53344
#     72310
#     91601
#     110506
#     127943
#     144528
#     163229
#     184412
# 
# Disc length: 2672
# 
# Revision: 0
# Processed by: cddbd v1.5.2PL0 Copyright (c) Steve Scherf et al.
# Submitted via: BonkEnc v1.0.15
# 
DISCID=8e0a6e0b
DTITLE=Leandro y Leonardo - Leandro y Leonardo
DYEAR=1997
DGENRE=Country
TTITLE0=Dulce Misterio
TTITLE1=Te Juro ( I Swear )
TTITLE2=Loca de Amor
TTITLE3=Juegos de Orgullo
TTITLE4=Disculpa Mas Voy Llorar
TTITLE5=Sueño Por Sueño
TTITLE6=No Aprendi a Decir Adios
TTITLE7=Dime Amor
TTITLE8=Di Que Me Amas
TTITLE9=Talisman
TTITLE10=Que Fue de Ti
EXTD=YEAR: 1997
EXTT0=
EXTT1=
EXTT2=
EXTT3=
EXTT4=
EXTT5=
EXTT6=
EXTT7=
EXTT8=
EXTT9=
EXTT10=
PLAYORDER=
